<svg version="1.1" viewBox="0.0 0.0 1037.7742782152231 172.70866141732284" fill="none" stroke="none" stroke-linecap="square" stroke-miterlimit="10" xmlns:xlink="http://www.w3.org/1999/xlink" xmlns="http://www.w3.org/2000/svg"><clipPath id="p.0"><path d="m0 0l1037.7743 0l0 172.70866l-1037.7743 0l0 -172.70866z" clip-rule="nonzero"/></clipPath><g clip-path="url(#p.0)"><path fill="#000000" fill-opacity="0.0" d="m0 0l1037.7743 0l0 172.70866l-1037.7743 0z" fill-rule="evenodd"/><path fill="#000000" fill-opacity="0.0" d="m-64.32482 -68.00114l1163.1497 0l0 288.9449l-1163.1497 0z" fill-rule="evenodd"/><path fill="#000000" d="m5.6126785 146.83887q-1.703125 0 -2.8125 -1.109375q-1.109375 -1.109375 -1.109375 -2.8125l0 -111.43751q0 -1.875 1.015625 -2.984375q1.03125 -1.109375 2.90625 -1.109375l8.03125 0q3.0625 0 4.265625 2.546875l36.34375 69.8125l36.6875 -69.8125q1.375 -2.546875 4.09375 -2.546875l8.03125 0q1.875 0 2.890625 1.109375q1.03125 1.109375 1.03125 2.984375l0 111.43751q0 1.703125 -1.109375 2.8125q-1.109375 1.109375 -2.8125 1.109375l-7.859375 0q-1.703125 0 -2.734375 -1.109375q-1.015625 -1.109375 -1.015625 -2.8125l0 -84.81251l-29.1875 56.484375q-1.703125 3.578125 -5.453125 3.578125l-5.125 0q-3.578125 0 -5.453125 -3.578125l-29.015625 -56.484375l0 84.81251q0 1.703125 -1.109375 2.8125q-1.109375 1.109375 -2.8125 1.109375l-7.6875 0zm165.20535 1.703125q-18.78125 0 -28.9375 -10.578125q-10.140625 -10.578133 -10.828125 -28.156258l-0.171875 -7.34375l0.171875 -7.328125q0.6875 -17.578125 11.0 -28.15625q10.328125 -10.59375 28.765625 -10.59375q18.421875 0 28.750015 10.59375q10.328125 10.578125 11.015625 28.15625q0.328125 3.75 0.328125 7.328125q0 3.59375 -0.328125 7.34375q-0.6875 17.578125 -10.84375 28.156258q-10.156265 10.578125 -28.92189 10.578125zm0 -12.796875q10.921875 0 17.3125 -6.90625q6.4062653 -6.9218826 6.9218903 -19.890633q0.171875 -1.703125 0.171875 -6.484375q0 -4.78125 -0.171875 -6.484375q-0.515625 -12.96875 -6.9218903 -19.875q-6.390625 -6.921875 -17.3125 -6.921875q-10.921875 0 -17.328125 6.921875q-6.390625 6.90625 -6.90625 19.875l-0.171875 6.484375l0.171875 6.484375q0.515625 12.96875 6.90625 19.890633q6.40625 6.90625 17.328125 6.90625zm65.52162 11.09375q-1.703125 0 -2.8125 -1.109375q-1.109375 -1.109375 -1.109375 -2.8125l0 -80.89063q0 -1.703125 1.109375 -2.8125q1.109375 -1.109375 2.8125 -1.109375l7.34375 0q1.875 0 2.890625 1.03125q1.03125 1.015625 1.03125 2.890625l0 7.5q5.125 -6.3125 11.859375 -9.71875q6.75 -3.421875 16.8125 -3.421875q16.390625 0 25.421875 10.5q9.046875 10.5 9.046875 27.734375l0 48.296883q0 1.703125 -1.109375 2.8125q-1.109375 1.109375 -2.8125 1.109375l-7.84375 0q-1.703125 0 -2.8125 -1.109375q-1.109375 -1.109375 -1.109375 -2.8125l0 -47.281258q0 -12.28125 -5.984375 -19.109375q-5.96875 -6.828125 -17.0625 -6.828125q-10.921875 0 -17.40625 6.921875q-6.484375 6.90625 -6.484375 19.015625l0 47.281258q0 1.703125 -1.109375 2.8125q-1.109375 1.109375 -2.8125 1.109375l-7.859375 0zm101.71698 -105.46876q-1.703125 0 -2.8125 -1.109375q-1.109375 -1.109375 -1.109375 -2.8125l0 -8.875q0 -1.703125 1.109375 -2.890625q1.109375 -1.203125 2.8125 -1.203125l10.0625 0q1.71875 0 2.90625 1.203125q1.203125 1.1875 1.203125 2.890625l0 8.875q0 1.703125 -1.203125 2.8125q-1.1875 1.109375 -2.90625 1.109375l-10.0625 0zm1.359375 105.46876q-1.703125 0 -2.8125 -1.109375q-1.109375 -1.109375 -1.109375 -2.8125l0 -80.89063q0 -1.703125 1.109375 -2.8125q1.109375 -1.109375 2.8125 -1.109375l7.515625 0q1.703125 0 2.8125 1.109375q1.109375 1.109375 1.109375 2.8125l0 80.89063q0 1.703125 -1.109375 2.8125q-1.109375 1.109375 -2.8125 1.109375l-7.515625 0zm72.535614 1.703125q-18.265625 0 -28.5 -10.3125q-10.234375 -10.328133 -10.75 -28.937508l-0.171875 -6.828125l0.171875 -6.828125q0.515625 -18.59375 10.75 -28.921875q10.234375 -10.328125 28.5 -10.328125q12.28125 0 20.734375 4.359375q8.453125 4.34375 12.625 10.828125q4.1875305 6.484375 4.5312805 12.96875q0.171875 1.546875 -1.109375 2.75q-1.2812805 1.1875 -2.8281555 1.1875l-7.5 0q-1.703125 0 -2.5625 -0.765625q-0.859375 -0.78125 -1.703125 -2.828125q-3.078125 -8.359375 -8.453125 -11.859375q-5.375 -3.5 -13.5625 -3.5q-10.75 0 -17.0625 6.65625q-6.3125 6.65625 -6.828125 20.3125l-0.171875 5.96875l0.171875 5.984375q0.515625 13.640625 6.828125 20.296883q6.3125 6.65625 17.0625 6.65625q8.359375 0 13.640625 -3.5q5.296875 -3.5 8.375 -11.859383q0.84375 -2.046875 1.703125 -2.8125q0.859375 -0.765625 2.5625 -0.765625l7.5 0q1.546875 0 2.8281555 1.203125q1.28125 1.1875 1.109375 2.71875q-0.34375 6.3125 -4.5312805 12.796883q-4.171875 6.484375 -12.625 10.921875q-8.453125 4.4375 -20.734375 4.4375zm82.93906 0q-8.359375 0 -15.453125 -3.40625q-7.078125 -3.421875 -11.265625 -9.296875q-4.171875 -5.890625 -4.171875 -13.062508q0 -11.265625 9.21875 -18.421875q9.21875 -7.171875 25.078125 -9.5625l25.609375 -3.59375l0 -4.9375q0 -17.578125 -20.3125 -17.578125q-7.84375 0 -12.625 3.15625q-4.78125 3.15625 -7.0 7.421875q-0.6875 1.703125 -1.453125 2.3125q-0.765625 0.59375 -2.125 0.59375l-6.65625 0q-1.546875 0 -2.65625 -1.109375q-1.109375 -1.109375 -1.109375 -2.65625q0 -3.921875 3.671875 -9.125q3.671875 -5.203125 11.34375 -9.046875q7.6875 -3.84375 18.78125 -3.84375q19.109375 0 27.390625 8.875q8.28125 8.875 8.28125 22.1875l0 55.468758q0 1.703125 -1.109375 2.8125q-1.109375 1.109375 -2.828125 1.109375l-7.5 0q-1.703125 0 -2.734375 -1.109375q-1.015625 -1.109375 -1.015625 -2.8125l0 -7.515625q-3.765625 5.640625 -10.9375 9.390625q-7.15625 3.75 -18.421875 3.75zm3.40625 -12.453125q11.265625 0 18.4375 -7.328125q7.171875 -7.3437576 7.171875 -21.343758l0 -4.78125l-19.96875 2.90625q-12.296875 1.703125 -18.609375 5.796875q-6.3125 4.09375 -6.3125 10.25q0 6.9843826 5.71875 10.750008q5.71875 3.75 13.5625 3.75zm152.7486 12.453125q-22.703125 0 -34.5625 -12.359375q-11.859375 -12.375008 -12.71875 -33.890633q-0.171875 -4.609375 -0.171875 -15.015625q0 -10.578125 0.171875 -15.359375q0.859375 -21.5 12.71875 -33.875q11.859375 -12.375 34.5625 -12.375q15.1875 0 25.765625 5.375q10.578125 5.375 15.953125 14.09375q5.375 8.703125 5.890625 18.59375q0 1.53125 -1.109375 2.46875q-1.109375 0.9375 -2.640625 0.9375l-8.546875 0q-1.703125 0 -2.734375 -0.84375q-1.015625 -0.859375 -1.53125 -2.90625q-2.890625 -13.140625 -10.484375 -18.421875q-7.59375 -5.296875 -20.5625 -5.296875q-29.703125 0 -30.890625 33.109375q-0.171875 4.609375 -0.171875 14.15625q0 9.5625 0.171875 14.515625q1.1875 32.937508 30.890625 32.937508q12.796875 0 20.46875 -5.28125q7.6875 -5.2968826 10.578125 -18.281258q0.515625 -2.046875 1.53125 -2.890625q1.03125 -0.859375 2.734375 -0.859375l8.546875 0q1.53125 0 2.640625 0.9375q1.109375 0.9375 1.109375 2.484375q-0.515625 9.890625 -5.890625 18.593758q-5.375 8.703125 -15.953125 14.078125q-10.578125 5.375 -25.765625 5.375zm72.689514 -1.703125q-1.703125 0 -2.8125 -1.109375q-1.109375 -1.109375 -1.109375 -2.8125l0 -113.31251q0 -1.890625 1.109375 -2.90625q1.109375 -1.03125 2.8125 -1.03125l7.859375 0q1.875 0 2.890625 1.03125q1.03125 1.015625 1.03125 2.90625l0 39.75q4.953125 -6.3125 11.6875 -9.640625q6.734375 -3.328125 16.640625 -3.328125q16.375 0 25.5 10.5q9.140625 10.5 9.140625 27.734375l0 48.296883q0 1.703125 -1.109375 2.8125q-1.109375 1.109375 -2.8125 1.109375l-8.015625 0q-1.71875 0 -2.828125 -1.109375q-1.109375 -1.109375 -1.109375 -2.8125l0 -47.281258q0 -12.28125 -5.96875 -19.109375q-5.96875 -6.828125 -17.234375 -6.828125q-10.921875 0 -17.40625 6.921875q-6.484375 6.90625 -6.484375 19.015625l0 47.281258q0 1.703125 -1.109375 2.8125q-1.109375 1.109375 -2.8125 1.109375l-7.859375 0zm134.65082 1.703125q-17.40625 0 -27.8125 -10.828125q-10.40625 -10.843758 -11.4375 -29.609383l-0.171875 -5.8125l0.171875 -5.625q1.03125 -18.4375 11.4375 -29.359375q10.40625 -10.921875 27.8125 -10.921875q18.78125 0 29.09375 11.953125q10.328125 11.9375 10.328125 32.421875l0 3.078125q0 1.703125 -1.109375 2.8125q-1.109375 1.109375 -2.8125 1.109375l-59.21875 0l0 1.53125q0.515625 11.09375 6.828125 18.953133q6.3125 7.84375 16.71875 7.84375q8.015625 0 13.046875 -3.15625q5.046875 -3.15625 7.609375 -6.5781326q1.53125 -2.046875 2.375 -2.46875q0.859375 -0.421875 2.90625 -0.421875l7.515625 0q1.53125 0 2.640625 0.859375q1.109375 0.84375 1.109375 2.203125q0 3.7656326 -4.609375 9.062508q-4.609375 5.28125 -13.0625 9.125q-8.4375 3.828125 -19.359375 3.828125zm23.890625 -52.390633l0 -0.515625q0 -11.9375 -6.484375 -19.4375q-6.484375 -7.515625 -17.40625 -7.515625q-11.09375 0 -17.40625 7.515625q-6.3125 7.5 -6.3125 19.4375l0 0.515625l47.609375 0zm59.89685 50.687508q-2.390625 0 -3.578125 -1.015625q-1.1875 -1.03125 -1.875 -3.25l-24.234375 -79.18751l-0.34375 -1.703125q0 -1.53125 1.015625 -2.546875q1.03125 -1.03125 2.5625 -1.03125l7.0 0q1.703125 0 2.8125 0.9375q1.109375 0.9375 1.28125 1.78125l19.296875 65.203125l20.46875 -64.34375q0.34375 -1.359375 1.53125 -2.46875q1.203125 -1.109375 3.25 -1.109375l5.46875 0q2.046875 0 3.234375 1.109375q1.203125 1.109375 1.53125 2.46875l20.484375 64.34375l19.28125 -65.203125q0.171875 -0.84375 1.28125 -1.78125q1.109375 -0.9375 2.8125 -0.9375l7.0 0q1.53125 0 2.546875 1.03125q1.03125 1.015625 1.03125 2.546875l-0.328125 1.703125l-24.234375 79.18751q-0.6875 2.21875 -1.890625 3.25q-1.1875 1.015625 -3.578125 1.015625l-6.140625 0q-4.4375 0 -5.796875 -4.265625l-19.96875 -61.781258l-19.96875 61.781258q-1.359375 4.265625 -5.796875 4.265625l-6.15625 0z" fill-rule="nonzero"/></g></svg>